{"title":"Planet.Of.The.Daleks.1973.DVDRip.x264.Iou1","uid":11231729,"size":1472708228,"categoryP":"video","categoryS":"tv_shows","magnet":"?xt=urn:btih:8712396df8ea9794122859442b45e1e35651f0a6&amp;dn=Planet.Of.The.Daleks.1973.DVDRip.x264.Iou1&amp;tr=udp%3A%2F%2Ftracker.openbittorrent.com%3A80&amp;tr=udp%3A%2F%2Fopen.demonii.com%3A1337&amp;tr=udp%3A%2F%2Ftracker.coppersurfer.tk%3A6969&amp;tr=udp%3A%2F%2Fexodus.desync.com%3A6969","seeders":0,"leechers":0,"uploader":"jaybee211","files":-1,"time":1413546382,"description":"Genre                                    : Adventure/Drama/Sci-Fi\nFormat                                   : MPEG-4\nFormat profile                           : Base Media / Version 2\nCodec ID                                 : mp42\nFiles                                    : 6\nFile size                                : 1.37 GiB\nDuration                                 : 2h 20mn 58s\nOverall bit rate mode                    : Variable\nOverall bit rate                         : 1 393 Kbps\n\nVideo\nID                                       : 2\nFormat                                   : AVC\nFormat/Info                              : Advanced Video Codec\nFormat profile                           : &lt;a class=&quot;__cf_email__&quot; href=&quot;/cdn-cgi/l/email-protection&quot; data-cfemail=&quot;b0f8d9d7d8f0fc839e81&quot;&gt;[email&amp;#160;protected]&lt;/a&gt;&lt;script cf-hash='f9e31' type=&quot;text/javascript&quot;&gt;\n/* &lt;![CDATA[ */!function(){try{var t=&quot;currentScript&quot;in document?document.currentScript:function(){for(var t=document.getElementsByTagName(&quot;script&quot;),e=t.length;e--;)if(t[e].getAttribute(&quot;cf-hash&quot;))return t[e]}();if(t&amp;&amp;t.previousSibling){var e,r,n,i,c=t.previousSibling,a=c.getAttribute(&quot;data-cfemail&quot;);if(a){for(e=&quot;&quot;,r=parseInt(a.substr(0,2),16),n=2;a.length-n;n+=2)i=parseInt(a.substr(n,2),16)^r,e+=String.fromCharCode(i);e=document.createTextNode(e),c.parentNode.replaceChild(e,c)}}}catch(u){}}();/* ]]&gt; */&lt;/script&gt;\nFormat settings, CABAC                   : Yes\nFormat settings, ReFrames                : 5 frames\nCodec ID                                 : avc1\nCodec ID/Info                            : Advanced Video Coding\nDuration                                 : 2h 20mn 58s\nBit rate mode                            : Variable\nBit rate                                 : 1 291 Kbps\nMaximum bit rate                         : 8 000 Kbps\nWidth                                    : 720 pixels\nHeight                                   : 576 pixels\nDisplay aspect ratio                     : 4:3\nFrame rate mode                          : Constant\nFrame rate                               : 29.970 fps\nStandard                                 : NTSC\nColor space                              : YUV\nChroma subsampling                       : 4:2:0\nBit depth                                : 8 bits\nScan type                                : Progressive\nBits/(Pixel*Frame)                       : 0.104\nStream size                              : 1.27 GiB (93%)              \n\nAudio\nID                                       : 1\nFormat                                   : AAC\nFormat/Info                              : Advanced Audio Codec\nFormat profile                           : LC\nCodec ID                                 : 40\nDuration                                 : 2h 20mn 58s\nBit rate mode                            : Variable\nBit rate                                 : 96.0 Kbps\nMaximum bit rate                         : 576 Kbps\nChannel(s)                               : 2 channels\nChannel positions                        : Front: L R\nSampling rate                            : 48.0 KHz\nCompression mode                         : Lossy\nStream size                              : 96 MiB (7%)\nSubtitles                                : None\n\nScreens. &lt;a href=&quot; http://bayimg.com/MAcdkaAGB&quot; rel=&quot;nofollow&quot; target=&quot;_NEW&quot;&gt; http://bayimg.com/MAcdkaAGB&lt;/a&gt;\n\n         &lt;a href=&quot; http://bayimg.com/maCDlaAgB&quot; rel=&quot;nofollow&quot; target=&quot;_NEW&quot;&gt; http://bayimg.com/maCDlaAgB&lt;/a&gt;\n\n         &lt;a href=&quot; http://bayimg.com/MAcDMaAGB&quot; rel=&quot;nofollow&quot; target=&quot;_NEW&quot;&gt; http://bayimg.com/MAcDMaAGB&lt;/a&gt;\n\n         &lt;a href=&quot; http://bayimg.com/MACdOaAgB&quot; rel=&quot;nofollow&quot; target=&quot;_NEW&quot;&gt; http://bayimg.com/MACdOaAgB&lt;/a&gt;\n\n         &lt;a href=&quot; http://bayimg.com/naCdCAAgB&quot; rel=&quot;nofollow&quot; target=&quot;_NEW&quot;&gt; http://bayimg.com/naCdCAAgB&lt;/a&gt;\n\n         &lt;a href=&quot; http://bayimg.com/NaCdGAAGB&quot; rel=&quot;nofollow&quot; target=&quot;_NEW&quot;&gt; http://bayimg.com/NaCdGAAGB&lt;/a&gt;\n\nIMDB. &lt;a href=&quot; http://www.imdb.com/title/tt0562868/&quot; rel=&quot;nofollow&quot; target=&quot;_NEW&quot;&gt; http://www.imdb.com/title/tt0562868/&lt;/a&gt;\n\nStoryline.\nThe TARDIS lands on the jungle planet Spiridon, where the Doctor has fallen into a coma, where The Doctor has requested the Time Lords to pilot the TARDIS, so he and Jo can follow the Daleks to their base. Where Jo learns the Dalek's base has been located on Spiridon where the Daleks are attempting to discover the secrets of Invisibilty and create a bacterial virus in their goal of universal conquest. Where The Doctor, recovered from his coma and Jo are joined by a task-force of Thals and a native Spiridon named Wester, Where they not only set out to stop The Daleks evil plot, they also discover a army of 12,000 Daleks are in suspended animation and are waiting to be revived to begin their universal conquest and claim themselves as the supreme rulers of the galaxy.\n\nEnjoy","torrent":{"xt":"urn:btih:8712396df8ea9794122859442b45e1e35651f0a6","amp;dn":"Planet.Of.The.Daleks.1973.DVDRip.x264.Iou1","amp;tr":["udp%3A%2F%2Ftracker.openbittorrent.com%3A80","udp%3A%2F%2Fopen.demonii.com%3A1337","udp%3A%2F%2Ftracker.coppersurfer.tk%3A6969","udp%3A%2F%2Fexodus.desync.com%3A6969"],"infoHash":"8712396df8ea9794122859442b45e1e35651f0a6","infoHashBuffer":{"type":"Buffer","data":[135,18,57,109,248,234,151,148,18,40,89,68,43,69,225,227,86,81,240,166]},"announce":[],"urlList":[]}}